HIERARCHY
ROOT Hips
{
	OFFSET -0.001795 -0.223333 0.028219
	CHANNELS 6 Xposition Yposition Zposition Zrotation Yrotation Xrotation 
	JOINT LeftUpLeg
	{
		OFFSET 0.069520 -0.091406 -0.006815
		CHANNELS 3 Zrotation Yrotation Xrotation
		JOINT LeftLeg
		{
			OFFSET 0.034277 -0.375199 -0.004496
			CHANNELS 3 Zrotation Yrotation Xrotation
			JOINT LeftFoot
			{
				OFFSET -0.013596 -0.397961 -0.043693
				CHANNELS 3 Zrotation Yrotation Xrotation
				JOINT LeftToe
				{
					OFFSET 0.026358 -0.055791 0.119288
					CHANNELS 3 Zrotation Yrotation Xrotation
					End Site
					{
						OFFSET 0.000000 0.000000 0.000000
					}
				}
			}
		}
	}
	JOINT RightUpLeg
	{
		OFFSET -0.067670 -0.090522 -0.004320
		CHANNELS 3 Zrotation Yrotation Xrotation
		JOINT RightLeg
		{
			OFFSET -0.038290 -0.382569 -0.008850
			CHANNELS 3 Zrotation Yrotation Xrotation
			JOINT RightFoot
			{
				OFFSET 0.015774 -0.398415 -0.042312
				CHANNELS 3 Zrotation Yrotation Xrotation
				JOINT RightToe
				{
					OFFSET -0.025372 -0.048144 0.123348
					CHANNELS 3 Zrotation Yrotation Xrotation
					End Site
					{
						OFFSET 0.000000 0.000000 0.000000
					}
				}
			}
		}
	}
	JOINT Spine
	{
		OFFSET -0.002533 0.108963 -0.026696
		CHANNELS 3 Zrotation Yrotation Xrotation
		JOINT Spine1
		{
			OFFSET 0.005487 0.135180 0.001092
			CHANNELS 3 Zrotation Yrotation Xrotation
			JOINT Spine2
			{
				OFFSET 0.001457 0.052922 0.025425
				CHANNELS 3 Zrotation Yrotation Xrotation
				JOINT Neck
				{
					OFFSET -0.002778 0.213870 -0.042857
					CHANNELS 3 Zrotation Yrotation Xrotation
					JOINT Head
					{
						OFFSET 0.005152 0.064970 0.051349
						CHANNELS 3 Zrotation Yrotation Xrotation
						End Site
						{
							OFFSET 0.000000 0.000000 0.000000
						}
					}
				}
				JOINT LeftShoulder
				{
					OFFSET 0.078845 0.121749 -0.034090
					CHANNELS 3 Zrotation Yrotation Xrotation
					JOINT LeftArm
					{
						OFFSET 0.090977 0.030469 -0.008868
						CHANNELS 3 Zrotation Yrotation Xrotation
						JOINT LeftForeArm
						{
							OFFSET 0.259612 -0.012772 -0.027456
							CHANNELS 3 Zrotation Yrotation Xrotation
							JOINT LeftHand
							{
								OFFSET 0.249234 0.008986 -0.001171
								CHANNELS 3 Zrotation Yrotation Xrotation
								End Site
								{
									OFFSET 0.000000 0.000000 0.000000
								}
							}
						}
					}
				}
				JOINT RightShoulder
				{
					OFFSET -0.081759 0.118833 -0.038615
					CHANNELS 3 Zrotation Yrotation Xrotation
					JOINT RightArm
					{
						OFFSET -0.096012 0.032551 -0.009143
						CHANNELS 3 Zrotation Yrotation Xrotation
						JOINT RightForeArm
						{
							OFFSET -0.253742 -0.013329 -0.021401
							CHANNELS 3 Zrotation Yrotation Xrotation
							JOINT RightHand
							{
								OFFSET -0.255298 0.007772 -0.005559
								CHANNELS 3 Zrotation Yrotation Xrotation
								End Site
								{
									OFFSET 0.000000 0.000000 0.000000
								}
							}
						}
					}
				}
			}
		}
	}
}
MOTION
Frames: 14
Frame Time: 0.050000
-0.006627 0.952737 0.008846 -1.905119 5.122035 12.166953 7.955298 -0.594084 -7.170402 7.083430 0.422672 -12.167021 -2.309250 3.596879 17.724756 0.000000 0.000000 0.000000 -3.187639 1.110065 -14.061295 -1.384268 0.363736 4.498361 -2.747096 -8.590800 6.944883 0.000000 0.000000 0.000000 -2.297213 0.094262 0.826676 2.796114 -1.248837 -0.902553 2.356939 -0.833106 -3.061429 -1.677017 1.535345 -4.187888 0.000000 0.000000 0.000000 -6.309281 -2.552925 0.258982 -55.125777 -21.739722 4.422898 -162.969354 -60.926139 157.270301 0.000000 0.000000 0.000000 -11.255144 12.703822 4.105236 2.901806 56.698509 -1.506341 -84.377326 24.636958 -17.993604 0.000000 0.000000 0.000000 
-0.009927 0.952269 0.009806 -1.862354 9.857133 12.022583 9.082551 -0.707156 -8.189893 5.527247 0.408875 -12.572950 -3.415354 3.004799 18.417130 0.000000 0.000000 0.000000 -2.563406 1.010767 -12.870873 -0.978404 0.263286 3.764114 -4.807933 -12.652900 7.938677 0.000000 0.000000 0.000000 -2.354548 0.099037 0.239187 2.735034 -1.156034 -1.736395 0.644321 1.365340 -1.712879 1.012904 -0.083167 -5.305340 0.000000 0.000000 0.000000 -3.624159 1.001590 -1.020453 -56.240530 -13.455250 -0.216971 -158.984216 -55.297259 143.481708 0.000000 0.000000 0.000000 -11.984314 10.617935 3.085664 5.338420 53.488509 0.596832 -90.959060 24.304804 -17.642229 0.000000 0.000000 0.000000 
-0.011310 0.952090 0.011736 -1.855150 12.799664 11.900755 8.268045 -0.773027 -8.815630 6.315410 0.409766 -12.846603 -4.441926 2.464153 19.399933 0.000000 0.000000 0.000000 -2.361366 0.923392 -11.827030 -0.674213 0.174173 2.639308 -5.519057 -13.874389 8.712302 0.000000 0.000000 0.000000 -2.502356 0.109155 -0.468430 3.021231 -1.213516 -2.452728 -0.316256 1.919023 -0.647328 1.774551 -0.755094 -3.865494 0.000000 0.000000 0.000000 -2.028669 4.029533 -1.792221 -58.349126 -8.448645 -3.254444 -153.034211 -53.127865 129.274910 0.000000 0.000000 0.000000 -10.328142 8.769499 2.470575 12.123259 50.873475 3.560023 -105.618392 29.209991 -27.395239 0.000000 0.000000 0.000000 
-0.011531 0.950478 0.014261 -2.053731 15.188106 11.440431 7.958453 -0.809333 -8.926710 6.380377 0.414098 -13.374383 -5.418560 1.330793 19.099699 0.000000 0.000000 0.000000 -1.945471 0.829859 -10.132645 -0.154972 0.059814 1.456184 -6.054457 -14.795134 8.800110 0.000000 0.000000 0.000000 -3.069203 0.125008 -1.225478 3.275337 -1.250884 -3.110707 -0.263737 1.136460 -0.065889 1.662056 -0.799065 -2.995362 0.000000 0.000000 0.000000 -0.849030 5.853979 -2.093946 -60.982713 -5.442047 -5.353687 -149.214292 -51.130552 120.239413 0.000000 0.000000 0.000000 -6.756151 7.229934 2.218857 20.856108 48.497751 6.517372 -123.783721 36.835209 -49.917835 0.000000 0.000000 0.000000 
-0.010822 0.949318 0.016340 -2.079366 16.653084 10.955375 7.441085 -0.812337 -8.780620 6.628281 0.407513 -13.542097 -6.314410 0.600852 19.715679 0.000000 0.000000 0.000000 -1.798933 0.749136 -8.883842 0.036983 0.011785 0.784182 -6.751447 -16.134510 8.955327 0.000000 0.000000 0.000000 -3.769277 0.129994 -1.511017 3.602055 -1.362027 -3.356533 -0.123992 -0.044492 -0.023775 0.387880 0.257298 -3.854603 0.000000 0.000000 0.000000 -0.894284 6.467180 -2.297812 -63.002051 -6.471610 -5.062690 -148.937022 -52.329800 121.464201 0.000000 0.000000 0.000000 -3.361714 5.975699 2.043357 28.998040 45.386083 8.601438 -138.983027 40.621780 -73.297176 0.000000 0.000000 0.000000 
-0.009677 0.947508 0.017351 -2.265584 17.156681 10.476908 7.064239 -0.774639 -8.049187 6.878926 0.436510 -14.230163 -6.427359 0.497207 19.637932 0.000000 0.000000 0.000000 -1.991485 0.661943 -7.768360 0.732910 -0.109496 -0.147292 -6.843667 -16.303846 9.030226 0.000000 0.000000 0.000000 -3.955189 0.121804 -2.222699 3.403012 -1.217797 -3.854829 0.297399 -0.900037 0.173447 -0.298253 0.665128 -3.268756 0.000000 0.000000 0.000000 -2.175106 5.646923 -2.348019 -63.940144 -7.821527 -4.272098 -151.890062 -52.829004 127.726801 0.000000 0.000000 0.000000 0.053992 5.432501 2.044705 35.736928 40.543696 9.126696 -152.384462 42.951138 -98.652980 0.000000 0.000000 0.000000 
-0.008332 0.946601 0.017393 -2.128636 17.466917 9.880882 6.917085 -0.746969 -7.605936 6.321184 0.406973 -14.082888 -6.403211 0.708185 19.865533 0.000000 0.000000 0.000000 -2.178620 0.609037 -7.213993 0.732097 -0.100895 0.264304 -6.873911 -16.394790 8.713444 0.000000 0.000000 0.000000 -4.134006 0.109493 -2.621824 3.440892 -1.324004 -3.024731 -0.073158 -1.616836 -0.428212 -1.040347 1.211149 -3.473252 0.000000 0.000000 0.000000 -2.367852 3.957347 -1.811828 -64.737838 -11.446008 -2.126732 -156.698806 -53.207771 137.017246 0.000000 0.000000 0.000000 2.311959 5.131837 2.021134 39.614423 36.468559 8.749258 -159.947653 45.549654 -117.414603 0.000000 0.000000 0.000000 
-0.007019 0.945834 0.016820 -2.197330 17.274559 8.917047 6.816998 -0.681805 -6.482633 6.398106 0.409879 -14.153166 -6.368419 0.192809 18.795503 0.000000 0.000000 0.000000 -2.031896 0.569910 -6.586803 0.780544 -0.098412 0.695704 -6.745299 -16.241428 8.055999 0.000000 0.000000 0.000000 -4.201919 0.095017 -2.876525 3.159783 -1.169506 -3.295649 0.348566 -2.251284 0.151490 -1.402302 1.423471 -3.043925 0.000000 0.000000 0.000000 -2.765812 2.930828 -1.525091 -65.056056 -15.320209 0.172156 -162.121573 -53.528891 148.191238 0.000000 0.000000 0.000000 3.775192 5.233023 2.079270 41.617301 33.032790 7.822691 -165.819661 48.313897 -133.226308 0.000000 0.000000 0.000000 
-0.005820 0.945936 0.016038 -2.251458 16.948459 8.646662 6.708390 -0.665800 -6.372339 6.683983 0.412130 -13.965112 -6.745233 -0.244487 19.113586 0.000000 0.000000 0.000000 -1.964192 0.553103 -6.292339 0.398667 -0.045097 0.588490 -6.366889 -15.483859 7.828385 0.000000 0.000000 0.000000 -4.215029 0.090182 -3.128301 3.112302 -1.207621 -2.765520 0.479007 -2.651729 -0.251406 -2.224233 2.073303 -3.770608 0.000000 0.000000 0.000000 -2.734585 2.171548 -1.237835 -65.580858 -18.709763 2.321612 -166.154253 -52.733071 156.056326 0.000000 0.000000 0.000000 5.053905 5.037046 1.991110 43.768038 30.938440 7.499282 -171.720616 51.048015 -148.374940 0.000000 0.000000 0.000000 
-0.004644 0.945849 0.015057 -2.263821 15.673409 8.346301 6.352904 -0.623924 -6.074596 7.090840 0.410084 -13.465561 -6.278621 -0.230204 18.203749 0.000000 0.000000 0.000000 -2.097104 0.570106 -6.566233 0.214235 0.002499 1.330565 -5.932040 -14.679702 7.238941 0.000000 0.000000 0.000000 -4.213925 0.083901 -3.857947 2.396468 -0.838191 -3.326176 1.321234 -2.882245 0.828765 -2.645460 2.390956 -3.970489 0.000000 0.000000 0.000000 -2.581992 1.928983 -1.091168 -66.896146 -21.650060 4.240321 -168.838162 -53.018528 162.545298 0.000000 0.000000 0.000000 5.397251 5.532755 2.132249 45.851127 29.633594 7.297444 -178.956594 54.111284 -165.286458 0.000000 0.000000 0.000000 
-0.003454 0.945367 0.013704 -2.395050 14.977557 7.923301 6.514883 -0.600889 -5.738704 7.209920 0.392554 -13.027465 -6.132505 -0.408406 17.658416 0.000000 0.000000 0.000000 -2.011536 0.570030 -6.490737 -0.292854 0.078351 1.374322 -5.263745 -13.283670 6.972097 0.000000 0.000000 0.000000 -4.070846 0.081528 -4.134864 2.150522 -0.806961 -2.532866 1.802727 -2.582221 0.265092 -3.237407 2.855706 -4.766123 0.000000 0.000000 0.000000 -2.085521 1.331315 -0.792568 -68.272958 -24.521566 6.273782 -170.723417 -53.160648 166.475960 0.000000 0.000000 0.000000 6.042135 5.854732 2.250391 48.458492 29.054719 7.657041 172.409678 56.397968 177.233046 0.000000 0.000000 0.000000 
-0.002162 0.944709 0.011728 -2.413303 13.729274 7.761966 6.559459 -0.577295 -5.545196 7.144596 0.361094 -12.354277 -5.392916 -0.054502 16.564998 0.000000 0.000000 0.000000 -2.340091 0.604768 -7.139120 -0.381022 0.110638 1.964197 -4.637856 -11.990077 6.380957 0.000000 0.000000 0.000000 -3.789980 0.085422 -4.867076 1.490482 -0.548787 -2.148302 2.705514 -2.429927 0.618162 -3.774828 3.231548 -4.884208 0.000000 0.000000 0.000000 -2.088769 0.995034 -0.657358 -69.227730 -27.194976 8.290701 -171.413414 -53.780292 168.630453 0.000000 0.000000 0.000000 5.877565 7.342653 2.804329 50.139161 29.540942 8.182065 167.107162 58.632577 167.261569 0.000000 0.000000 0.000000 
-0.000896 0.944567 0.009523 -2.310184 12.832611 7.402659 6.601775 -0.556006 -5.404822 6.866980 0.320420 -11.679038 -5.104106 -0.089911 15.902719 0.000000 0.000000 0.000000 -2.906596 0.591960 -7.354570 -0.249154 0.102135 2.272131 -4.402834 -11.535001 6.661323 0.000000 0.000000 0.000000 -3.707521 0.087637 -4.968282 1.449747 -0.550644 -1.935763 3.135891 -1.896511 0.181111 -3.933276 3.322402 -4.682246 0.000000 0.000000 0.000000 -1.999665 -0.405559 -0.159728 -69.495651 -30.268038 10.482473 -173.393385 -55.166939 172.687798 0.000000 0.000000 0.000000 5.948667 8.112424 3.112363 51.995801 30.611578 9.167210 162.967606 61.091954 160.709354 0.000000 0.000000 0.000000 
0.000234 0.944706 0.007630 -2.473480 11.820815 7.446897 6.789307 -0.553418 -5.548590 6.761984 0.291963 -11.168587 -5.025758 -0.330202 15.520566 0.000000 0.000000 0.000000 -2.973300 0.626051 -7.799490 -0.444355 0.128432 2.142860 -4.010589 -10.769446 7.048752 0.000000 0.000000 0.000000 -3.325287 0.101621 -5.554277 1.312983 -0.499698 -1.837531 3.671308 -2.008838 -0.209680 -4.316732 3.579777 -5.088814 0.000000 0.000000 0.000000 -1.591538 -0.652979 0.000311 -70.427799 -32.938931 12.779889 -174.418866 -56.614745 175.277460 0.000000 0.000000 0.000000 5.135111 9.190079 3.445795 53.975836 31.405317 10.063769 160.768334 62.947440 157.133975 0.000000 0.000000 0.000000 
